<svg width="213" height="100" viewBox="0 0 213 100" fill="none" xmlns="http://www.w3.org/2000/svg">
<path d="M8 50C8 22.938 29.938 1 57 1H157C184.062 1 206 22.938 206 50C206 77.062 184.062 99 157 99H57C29.938 99 8 77.062 8 50Z" fill="#A22DFF" stroke="black" stroke-width="2"/>
<path d="M74.7812 55.6562V64H70.3906V41.25H78.1719C79.4115 41.25 80.5312 41.4323 81.5312 41.7969C82.5312 42.151 83.3854 42.6458 84.0938 43.2812C84.7917 43.9271 85.3281 44.6979 85.7031 45.5938C86.0885 46.4896 86.2812 47.4844 86.2812 48.5781C86.2812 49.599 86.0885 50.5417 85.7031 51.4062C85.3281 52.2708 84.7917 53.0156 84.0938 53.6406C83.3854 54.276 82.5312 54.7708 81.5312 55.125C80.5312 55.4792 79.4115 55.6562 78.1719 55.6562H74.7812ZM74.7812 52.0938H78.1719C78.7969 52.0938 79.3385 52 79.7969 51.8125C80.2552 51.625 80.6406 51.3698 80.9531 51.0469C81.2552 50.724 81.4792 50.3542 81.625 49.9375C81.7812 49.5104 81.8594 49.0677 81.8594 48.6094C81.8594 48.0781 81.7812 47.5833 81.625 47.125C81.4792 46.6667 81.2552 46.2656 80.9531 45.9219C80.6406 45.5781 80.2552 45.3073 79.7969 45.1094C79.3385 44.9115 78.7969 44.8125 78.1719 44.8125H74.7812V52.0938ZM90.3906 40H99.8438V60.4688H104.688V64H90.3906V60.4688H95.4531V43.5469H90.3906V40ZM119.266 64C119.161 63.7917 119.073 63.5521 119 63.2812C118.927 63.0104 118.865 62.724 118.812 62.4219C118.573 62.6823 118.297 62.9271 117.984 63.1562C117.672 63.3854 117.328 63.5833 116.953 63.75C116.568 63.9271 116.146 64.0625 115.688 64.1562C115.229 64.2604 114.734 64.3125 114.203 64.3125C113.339 64.3125 112.542 64.1875 111.812 63.9375C111.094 63.6875 110.474 63.3385 109.953 62.8906C109.432 62.4427 109.026 61.9115 108.734 61.2969C108.443 60.6719 108.297 59.9948 108.297 59.2656C108.297 58.3281 108.479 57.5 108.844 56.7812C109.208 56.0521 109.755 55.4531 110.484 54.9844C111.141 54.5573 111.948 54.2344 112.906 54.0156C113.875 53.7865 114.984 53.6719 116.234 53.6719H118.656V52.6719C118.656 52.276 118.594 51.9219 118.469 51.6094C118.344 51.2865 118.156 51.0104 117.906 50.7812C117.646 50.5417 117.318 50.3594 116.922 50.2344C116.536 50.099 116.083 50.0312 115.562 50.0312C115.104 50.0312 114.708 50.0885 114.375 50.2031C114.042 50.3073 113.771 50.4583 113.562 50.6562C113.375 50.8333 113.234 51.0469 113.141 51.2969C113.057 51.5469 113.016 51.8229 113.016 52.125H108.672C108.672 51.4062 108.828 50.724 109.141 50.0781C109.464 49.4323 109.932 48.8646 110.547 48.375C111.151 47.8854 111.891 47.5 112.766 47.2188C113.651 46.9271 114.661 46.7812 115.797 46.7812C116.818 46.7812 117.766 46.9062 118.641 47.1562C119.526 47.4062 120.292 47.776 120.938 48.2656C121.583 48.7552 122.089 49.375 122.453 50.125C122.818 50.8646 123 51.724 123 52.7031V59.9531C123 60.8594 123.057 61.6094 123.172 62.2031C123.286 62.7969 123.453 63.3073 123.672 63.7344V64H119.266ZM115.125 60.9531C115.562 60.9531 115.969 60.901 116.344 60.7969C116.719 60.6927 117.057 60.5573 117.359 60.3906C117.661 60.224 117.922 60.0365 118.141 59.8281C118.359 59.6094 118.531 59.3906 118.656 59.1719V56.2656H116.438C115.76 56.2656 115.182 56.3333 114.703 56.4688C114.224 56.5938 113.833 56.7708 113.531 57C113.229 57.2396 113.005 57.526 112.859 57.8594C112.714 58.1823 112.641 58.5365 112.641 58.9219C112.641 59.224 112.693 59.5052 112.797 59.7656C112.911 60.0156 113.073 60.2292 113.281 60.4062C113.49 60.5729 113.745 60.7083 114.047 60.8125C114.359 60.9062 114.719 60.9531 115.125 60.9531ZM130.594 70.8281C130.177 70.8281 129.812 70.8021 129.5 70.75C129.198 70.6979 128.859 70.6198 128.484 70.5156L129.016 67.2031C129.193 67.2031 129.417 67.2083 129.688 67.2188C129.969 67.2396 130.193 67.25 130.359 67.25C130.703 67.25 131.005 67.1406 131.266 66.9219C131.536 66.7135 131.766 66.4844 131.953 66.2344C132.141 65.9844 132.276 65.7969 132.359 65.6719C132.453 65.5469 132.562 65.3698 132.688 65.1406L133.688 63.2812L126.531 47.0938H131.281L135.156 57L135.625 58.7188L136.266 57.0312L140.125 47.0938H144.922L136.344 66.5312C136.156 66.9583 135.911 67.4219 135.609 67.9219C135.318 68.4219 134.948 68.8854 134.5 69.3125C134.052 69.7396 133.505 70.099 132.859 70.3906C132.224 70.6823 131.469 70.8281 130.594 70.8281Z" fill="white"/>
</svg>
