<svg width="247" height="100" viewBox="0 0 247 100" fill="none" xmlns="http://www.w3.org/2000/svg">
<path d="M1 50C1 33.9837 13.9837 21 30 21H217C233.016 21 246 33.9837 246 50C246 66.0163 233.016 79 217 79H30C13.9837 79 1 66.0163 1 50Z" fill="#A22DFF" stroke="#000327" stroke-width="2"/>
<path d="M33.8379 51.5664H35.0391C34.9414 52.5234 34.6777 53.3503 34.248 54.0469C33.8184 54.737 33.2324 55.2676 32.4902 55.6387C31.748 56.0098 30.8529 56.1953 29.8047 56.1953C28.9974 56.1953 28.265 56.0423 27.6074 55.7363C26.9564 55.4303 26.3965 54.9974 25.9277 54.4375C25.459 53.8711 25.0977 53.194 24.8438 52.4062C24.5898 51.6185 24.4629 50.7428 24.4629 49.7793V48.002C24.4629 47.0384 24.5898 46.166 24.8438 45.3848C25.0977 44.597 25.4622 43.9199 25.9375 43.3535C26.4128 42.7871 26.9824 42.3509 27.6465 42.0449C28.3105 41.7389 29.0592 41.5859 29.8926 41.5859C30.9017 41.5859 31.7741 41.7715 32.5098 42.1426C33.2454 42.5072 33.8249 43.0345 34.248 43.7246C34.6777 44.4147 34.9414 45.248 35.0391 46.2246H33.8379C33.7467 45.4564 33.5449 44.8053 33.2324 44.2715C32.9199 43.7376 32.487 43.3307 31.9336 43.0508C31.3867 42.7643 30.7064 42.6211 29.8926 42.6211C29.2285 42.6211 28.6361 42.748 28.1152 43.002C27.5944 43.2559 27.1517 43.6204 26.7871 44.0957C26.4225 44.5645 26.1426 45.1276 25.9473 45.7852C25.7585 46.4427 25.6641 47.1751 25.6641 47.9824V49.7793C25.6641 50.5605 25.7552 51.2799 25.9375 51.9375C26.1198 52.5951 26.3867 53.1647 26.7383 53.6465C27.0964 54.1283 27.5326 54.5026 28.0469 54.7695C28.5612 55.0365 29.1471 55.1699 29.8047 55.1699C30.6445 55.1699 31.3444 55.0365 31.9043 54.7695C32.4707 54.4961 32.9102 54.0924 33.2227 53.5586C33.5352 53.0247 33.7402 52.3607 33.8379 51.5664ZM40.0508 50.8828V50.5605C40.0508 49.7923 40.1615 49.0827 40.3828 48.4316C40.6042 47.7806 40.9199 47.2174 41.3301 46.7422C41.7467 46.2669 42.2448 45.8991 42.8242 45.6387C43.4036 45.3717 44.0482 45.2383 44.7578 45.2383C45.474 45.2383 46.1217 45.3717 46.7012 45.6387C47.2806 45.8991 47.7786 46.2669 48.1953 46.7422C48.612 47.2174 48.931 47.7806 49.1523 48.4316C49.3737 49.0827 49.4844 49.7923 49.4844 50.5605V50.8828C49.4844 51.651 49.3737 52.3607 49.1523 53.0117C48.931 53.6562 48.612 54.2161 48.1953 54.6914C47.7852 55.1667 47.2904 55.5378 46.7109 55.8047C46.1315 56.0651 45.487 56.1953 44.7773 56.1953C44.0612 56.1953 43.4134 56.0651 42.834 55.8047C42.2546 55.5378 41.7565 55.1667 41.3398 54.6914C40.9232 54.2161 40.6042 53.6562 40.3828 53.0117C40.1615 52.3607 40.0508 51.651 40.0508 50.8828ZM41.2129 50.5605V50.8828C41.2129 51.4622 41.291 52.0124 41.4473 52.5332C41.6035 53.0475 41.8314 53.5065 42.1309 53.9102C42.4303 54.3073 42.8014 54.6198 43.2441 54.8477C43.6868 55.0755 44.1979 55.1895 44.7773 55.1895C45.3503 55.1895 45.8548 55.0755 46.291 54.8477C46.7337 54.6198 47.1048 54.3073 47.4043 53.9102C47.7038 53.5065 47.9284 53.0475 48.0781 52.5332C48.2344 52.0124 48.3125 51.4622 48.3125 50.8828V50.5605C48.3125 49.9876 48.2344 49.444 48.0781 48.9297C47.9284 48.4154 47.7005 47.9564 47.3945 47.5527C47.0951 47.1491 46.724 46.8301 46.2812 46.5957C45.8385 46.3613 45.3307 46.2441 44.7578 46.2441C44.1849 46.2441 43.6771 46.3613 43.2344 46.5957C42.7982 46.8301 42.4271 47.1491 42.1211 47.5527C41.8216 47.9564 41.5938 48.4154 41.4375 48.9297C41.2878 49.444 41.2129 49.9876 41.2129 50.5605ZM56.0098 47.6211V56H54.8379V45.4336H55.9609L56.0098 47.6211ZM55.7949 50.0625L55.2285 49.7695C55.2676 49.1445 55.3848 48.5586 55.5801 48.0117C55.7819 47.4648 56.0618 46.9831 56.4199 46.5664C56.778 46.1497 57.2077 45.8242 57.709 45.5898C58.2103 45.3555 58.7799 45.2383 59.418 45.2383C59.9323 45.2383 60.3978 45.3099 60.8145 45.4531C61.2376 45.5898 61.5957 45.8079 61.8887 46.1074C62.1882 46.4004 62.4193 46.7845 62.582 47.2598C62.7448 47.735 62.8262 48.3047 62.8262 48.9688V56H61.6641V49.0078C61.6641 48.3047 61.5534 47.7546 61.332 47.3574C61.1172 46.9603 60.8145 46.6771 60.4238 46.5078C60.0397 46.3385 59.5938 46.2539 59.0859 46.2539C58.487 46.2539 57.9792 46.3776 57.5625 46.625C57.1523 46.8659 56.8171 47.1816 56.5566 47.5723C56.3027 47.9564 56.1139 48.3698 55.9902 48.8125C55.8665 49.2487 55.8014 49.6654 55.7949 50.0625ZM62.8164 49.1445L62.0352 49.1641C62.0677 48.6497 62.1849 48.1582 62.3867 47.6895C62.5951 47.2207 62.8783 46.804 63.2363 46.4395C63.5944 46.0684 64.0208 45.7754 64.5156 45.5605C65.0169 45.3457 65.5801 45.2383 66.2051 45.2383C66.752 45.2383 67.2402 45.3132 67.6699 45.4629C68.0996 45.6061 68.4609 45.8372 68.7539 46.1562C69.0534 46.4688 69.2812 46.8691 69.4375 47.3574C69.5938 47.8457 69.6719 48.4316 69.6719 49.1152V56H68.5V49.1055C68.5 48.3568 68.3893 47.7773 68.168 47.3672C67.9531 46.9505 67.6536 46.6608 67.2695 46.498C66.8854 46.3353 66.4362 46.2539 65.9219 46.2539C65.4141 46.2604 64.9681 46.3548 64.584 46.5371C64.1999 46.7129 63.8776 46.9473 63.6172 47.2402C63.3633 47.5267 63.168 47.8359 63.0312 48.168C62.901 48.5 62.8294 48.8255 62.8164 49.1445ZM76.793 47.4648V60.0625H75.6211V45.4336H76.7148L76.793 47.4648ZM84.1367 50.6191V50.8242C84.1367 51.612 84.0456 52.3346 83.8633 52.9922C83.681 53.6497 83.4173 54.2194 83.0723 54.7012C82.7337 55.1764 82.3138 55.5443 81.8125 55.8047C81.3112 56.0651 80.7415 56.1953 80.1035 56.1953C79.472 56.1953 78.9089 56.0977 78.4141 55.9023C77.9193 55.707 77.4928 55.4303 77.1348 55.0723C76.7832 54.7077 76.5 54.2845 76.2852 53.8027C76.0768 53.3145 75.9303 52.7806 75.8457 52.2012V49.4961C75.9434 48.8581 76.1029 48.2786 76.3242 47.7578C76.5456 47.237 76.8288 46.7878 77.1738 46.4102C77.5254 46.0326 77.9421 45.7428 78.4238 45.541C78.9056 45.3392 79.4557 45.2383 80.0742 45.2383C80.7188 45.2383 81.2917 45.3652 81.793 45.6191C82.3008 45.8665 82.7272 46.2279 83.0723 46.7031C83.4238 47.1719 83.6875 47.7383 83.8633 48.4023C84.0456 49.0599 84.1367 49.7988 84.1367 50.6191ZM82.9648 50.8242V50.6191C82.9648 50.0007 82.8997 49.4277 82.7695 48.9004C82.6458 48.373 82.4538 47.9141 82.1934 47.5234C81.9395 47.1263 81.6139 46.8171 81.2168 46.5957C80.8262 46.3743 80.3607 46.2637 79.8203 46.2637C79.2604 46.2637 78.7819 46.3581 78.3848 46.5469C77.9941 46.7292 77.6686 46.9733 77.4082 47.2793C77.1478 47.5788 76.9427 47.9076 76.793 48.2656C76.6432 48.6237 76.5326 48.9753 76.4609 49.3203V52.4355C76.5846 52.9303 76.7832 53.3893 77.0566 53.8125C77.3301 54.2292 77.6947 54.5645 78.1504 54.8184C78.6126 55.0658 79.1758 55.1895 79.8398 55.1895C80.3737 55.1895 80.8359 55.0788 81.2266 54.8574C81.6172 54.6361 81.9395 54.3268 82.1934 53.9297C82.4538 53.5326 82.6458 53.0703 82.7695 52.543C82.8997 52.0156 82.9648 51.4427 82.9648 50.8242ZM96.1602 54.1055V48.6562C96.1602 48.1549 96.056 47.722 95.8477 47.3574C95.6393 46.9928 95.3333 46.7129 94.9297 46.5176C94.526 46.3223 94.028 46.2246 93.4355 46.2246C92.8887 46.2246 92.4004 46.3223 91.9707 46.5176C91.5475 46.7064 91.2122 46.9635 90.9648 47.2891C90.724 47.6081 90.6035 47.9629 90.6035 48.3535L89.4316 48.3438C89.4316 47.9466 89.5293 47.5625 89.7246 47.1914C89.9199 46.8203 90.1966 46.4883 90.5547 46.1953C90.9128 45.9023 91.3392 45.6712 91.834 45.502C92.3353 45.3262 92.8854 45.2383 93.4844 45.2383C94.2396 45.2383 94.9036 45.3652 95.4766 45.6191C96.056 45.873 96.5085 46.2539 96.834 46.7617C97.1595 47.2695 97.3223 47.9076 97.3223 48.6758V53.7832C97.3223 54.1478 97.3483 54.5254 97.4004 54.916C97.459 55.3066 97.5404 55.6289 97.6445 55.8828V56H96.4043C96.3262 55.7656 96.2643 55.4727 96.2188 55.1211C96.1797 54.763 96.1602 54.4245 96.1602 54.1055ZM96.4336 49.8477L96.4531 50.7461H94.1582C93.5592 50.7461 93.0221 50.8014 92.5469 50.9121C92.0781 51.0163 91.681 51.1725 91.3555 51.3809C91.0299 51.5827 90.7793 51.8268 90.6035 52.1133C90.4342 52.3997 90.3496 52.7253 90.3496 53.0898C90.3496 53.4674 90.444 53.8125 90.6328 54.125C90.8281 54.4375 91.1016 54.6882 91.4531 54.877C91.8112 55.0592 92.2344 55.1504 92.7227 55.1504C93.3737 55.1504 93.9466 55.0299 94.4414 54.7891C94.9427 54.5482 95.3561 54.2324 95.6816 53.8418C96.0072 53.4512 96.2253 53.0247 96.3359 52.5625L96.8438 53.2363C96.7591 53.5618 96.6029 53.8971 96.375 54.2422C96.1536 54.5807 95.8639 54.8997 95.5059 55.1992C95.1478 55.4922 94.7246 55.7331 94.2363 55.9219C93.7546 56.1042 93.2077 56.1953 92.5957 56.1953C91.9056 56.1953 91.3034 56.0651 90.7891 55.8047C90.2812 55.5443 89.8841 55.1895 89.5977 54.7402C89.3177 54.2845 89.1777 53.7702 89.1777 53.1973C89.1777 52.6764 89.2884 52.2109 89.5098 51.8008C89.7311 51.3841 90.0501 51.0326 90.4668 50.7461C90.89 50.4531 91.3978 50.2318 91.9902 50.082C92.5892 49.9258 93.2598 49.8477 94.002 49.8477H96.4336ZM104.619 47.1816V56H103.457V45.4336H104.59L104.619 47.1816ZM108.359 45.3555L108.33 46.4297C108.2 46.4102 108.073 46.3939 107.949 46.3809C107.826 46.3678 107.692 46.3613 107.549 46.3613C107.041 46.3613 106.595 46.4557 106.211 46.6445C105.833 46.8268 105.514 47.084 105.254 47.416C104.993 47.7415 104.795 48.1257 104.658 48.5684C104.521 49.0046 104.443 49.4733 104.424 49.9746L103.994 50.1406C103.994 49.4505 104.066 48.8092 104.209 48.2168C104.352 47.6243 104.57 47.1068 104.863 46.6641C105.163 46.2148 105.537 45.8665 105.986 45.6191C106.442 45.3652 106.976 45.2383 107.588 45.2383C107.738 45.2383 107.884 45.2513 108.027 45.2773C108.177 45.2969 108.288 45.3229 108.359 45.3555ZM117.678 45.4336V46.3906H112.385V45.4336H117.678ZM114.328 42.7188H115.49V53.4316C115.49 53.9199 115.555 54.2878 115.686 54.5352C115.816 54.7826 115.985 54.9486 116.193 55.0332C116.402 55.1178 116.626 55.1602 116.867 55.1602C117.043 55.1602 117.212 55.1504 117.375 55.1309C117.538 55.1048 117.684 55.0788 117.814 55.0527L117.863 56.0391C117.72 56.0846 117.535 56.1204 117.307 56.1465C117.079 56.179 116.851 56.1953 116.623 56.1953C116.174 56.1953 115.777 56.1139 115.432 55.9512C115.087 55.7819 114.816 55.4954 114.621 55.0918C114.426 54.6816 114.328 54.125 114.328 53.4219V42.7188ZM124.428 45.4336V56H123.266V45.4336H124.428ZM123.061 42.377C123.061 42.1556 123.129 41.9701 123.266 41.8203C123.409 41.6641 123.604 41.5859 123.852 41.5859C124.099 41.5859 124.294 41.6641 124.438 41.8203C124.587 41.9701 124.662 42.1556 124.662 42.377C124.662 42.5918 124.587 42.7773 124.438 42.9336C124.294 43.0833 124.099 43.1582 123.852 43.1582C123.604 43.1582 123.409 43.0833 123.266 42.9336C123.129 42.7773 123.061 42.5918 123.061 42.377ZM131.783 47.1816V56H130.621V45.4336H131.754L131.783 47.1816ZM135.523 45.3555L135.494 46.4297C135.364 46.4102 135.237 46.3939 135.113 46.3809C134.99 46.3678 134.856 46.3613 134.713 46.3613C134.205 46.3613 133.759 46.4557 133.375 46.6445C132.997 46.8268 132.678 47.084 132.418 47.416C132.158 47.7415 131.959 48.1257 131.822 48.5684C131.686 49.0046 131.607 49.4733 131.588 49.9746L131.158 50.1406C131.158 49.4505 131.23 48.8092 131.373 48.2168C131.516 47.6243 131.734 47.1068 132.027 46.6641C132.327 46.2148 132.701 45.8665 133.15 45.6191C133.606 45.3652 134.14 45.2383 134.752 45.2383C134.902 45.2383 135.048 45.2513 135.191 45.2773C135.341 45.2969 135.452 45.3229 135.523 45.3555Z" fill="white"/>
<g clip-path="url(#clip0_677_2204)">
<path d="M163.625 49.5C163.625 50.9918 164.218 52.4226 165.273 53.4775C166.327 54.5324 167.758 55.125 169.25 55.125C170.742 55.125 172.173 54.5324 173.227 53.4775C174.282 52.4226 174.875 50.9918 174.875 49.5C174.875 48.0082 174.282 46.5774 173.227 45.5225C172.173 44.4676 170.742 43.875 169.25 43.875C167.758 43.875 166.327 44.4676 165.273 45.5225C164.218 46.5774 163.625 48.0082 163.625 49.5Z" stroke="white" stroke-width="5" stroke-linecap="round" stroke-linejoin="round"/>
<path d="M186.125 38.25C186.125 39.7418 186.718 41.1726 187.773 42.2275C188.827 43.2824 190.258 43.875 191.75 43.875C193.242 43.875 194.673 43.2824 195.727 42.2275C196.782 41.1726 197.375 39.7418 197.375 38.25C197.375 36.7582 196.782 35.3274 195.727 34.2725C194.673 33.2176 193.242 32.625 191.75 32.625C190.258 32.625 188.827 33.2176 187.773 34.2725C186.718 35.3274 186.125 36.7582 186.125 38.25Z" stroke="white" stroke-width="5" stroke-linecap="round" stroke-linejoin="round"/>
<path d="M186.125 60.75C186.125 62.2418 186.718 63.6726 187.773 64.7275C188.827 65.7824 190.258 66.375 191.75 66.375C193.242 66.375 194.673 65.7824 195.727 64.7275C196.782 63.6726 197.375 62.2418 197.375 60.75C197.375 59.2582 196.782 57.8274 195.727 56.7725C194.673 55.7176 193.242 55.125 191.75 55.125C190.258 55.125 188.827 55.7176 187.773 56.7725C186.718 57.8274 186.125 59.2582 186.125 60.75Z" stroke="white" stroke-width="5" stroke-linecap="round" stroke-linejoin="round"/>
<path d="M174.312 47.0625L186.687 40.6875" stroke="white" stroke-width="5" stroke-linecap="round" stroke-linejoin="round"/>
<path d="M174.312 51.9375L186.687 58.3125" stroke="white" stroke-width="5" stroke-linecap="round" stroke-linejoin="round"/>
</g>
<defs>
<clipPath id="clip0_677_2204">
<rect width="45" height="45" fill="white" transform="translate(158 27)"/>
</clipPath>
</defs>
</svg>
